<svg preserveAspectRatio="xMidYMid meet" width="148" height="62" overflow="visible" style="display: block;" viewBox="0 0 148 62" fill="none" xmlns="http://www.w3.org/2000/svg">
<g id="image 13 [Vectorized]">
<path id="Vector" d="M88.2332 38.5571C90.4683 38.4758 92.7683 38.5933 95.0149 38.5471C97.5803 38.4943 97.1876 36.0277 97.1826 34.1527L97.1662 28.1712C97.1596 24.2466 96.9608 21.0747 99.91 17.9042C101.134 16.5869 102.688 15.6221 104.412 15.1107C106.745 14.4252 109.3 14.6097 111.702 14.586C114.17 14.5615 116.712 14.643 119.173 14.5498C119.152 16.6424 119.143 18.7353 119.15 20.8279C119.15 22.224 119.117 23.8222 119.185 25.2016C117.136 25.0663 114.888 25.1472 112.832 25.2069C110.919 25.2623 111.224 27.6047 111.227 28.9437L111.24 35.3463C111.247 38.3855 111.577 40.6457 109.61 43.1892L109.475 43.347C107.297 45.8668 103.725 48.4665 100.522 49.6255C99.9527 49.8313 95.6969 49.7301 94.7692 49.7312L81.1342 49.7304C79.167 49.7308 76.088 49.6345 74.1873 49.7732C74.1906 49.0025 74.2555 46.6444 74.0748 46.0503C73.6614 45.8491 72.0669 47.3504 71.7146 47.646C69.301 49.6073 65.9259 50.5327 62.8104 50.508C55.7672 50.4522 51.7919 47.8595 51.7561 40.5778C51.6949 28.1275 65.0619 29.2748 74.2087 29.2722C74.1405 24.8326 72.2755 25.1536 68.6891 25.1517L64.0225 25.1512L57.7069 25.1545C56.565 25.1557 55.1169 25.1195 54.002 25.197C53.9965 23.7719 53.8227 15.3976 54.0931 14.567C54.6048 14.6231 55.5896 14.5946 56.1296 14.5946L59.9369 14.5936L72.7164 14.5849C77.1316 14.5937 80.9978 15.4158 84.2091 18.7018C88.1272 22.7101 88.2603 26.866 88.257 32.019L88.2332 38.5571ZM71.7891 40.6771C73.6064 39.6696 74.1257 38.7408 74.2259 36.6645C71.6247 36.6379 68.5738 36.5674 66.0046 36.674C64.5964 36.9535 63.7277 37.9227 64.0506 39.4151C64.1691 39.989 64.5165 40.4898 65.0126 40.8023C66.2741 41.5795 69.9081 41.2056 71.268 40.8526C71.4455 40.8059 71.6195 40.7472 71.7891 40.6771Z" fill="var(--fill-0, #F5E9D9)"/>
<path id="Vector_2" d="M1.22186 0.498047L10.1718 0.52079C12.188 0.522104 14.3548 0.559791 16.3552 0.498128C16.2898 2.23455 16.3584 4.19101 16.3411 5.95166C16.297 10.4568 16.3993 15.0096 16.342 19.5101C20.5274 19.3771 25.4332 19.6751 29.4908 19.427C29.3669 22.2753 29.5044 25.195 29.4442 28.0494C29.4253 28.9474 29.4304 29.9097 29.4692 30.8051C28.1925 30.6906 26.6506 30.7647 25.3462 30.7452C22.3732 30.701 19.2905 30.8276 16.3262 30.7293C16.3648 32.5977 16.3397 34.564 16.341 36.4401L16.345 49.7945C15.1966 49.6561 11.1645 49.7025 9.89037 49.7301C7.27941 49.787 3.77678 49.6045 1.23756 49.7907C1.13131 47.8644 1.2014 45.2945 1.20222 43.3235L1.2023 31.7706C1.20132 21.3951 1.10501 10.8624 1.22186 0.498047Z" fill="var(--fill-0, #F5E9D9)"/>
<path id="Vector_3" d="M32.1653 0.451466C37.1932 0.309994 42.431 0.525856 47.4942 0.405486C47.417 1.98877 47.4503 3.72954 47.4497 5.32515L47.4488 13.1931L47.4496 37.132L47.455 45.3803C47.4557 46.5697 47.5169 48.7065 47.4104 49.8098C46.5468 49.684 42.6259 49.7074 41.5044 49.7316C38.518 49.7958 35.0803 49.624 32.1413 49.7693C32.0568 45.7197 32.121 41.4799 32.1213 37.4128L32.1222 14.6702L32.1168 4.76575C32.1163 4.01364 32.07 0.985414 32.1653 0.451466Z" fill="var(--fill-0, #F5E9D9)"/>
<path id="Vector_4" d="M135.94 14.5947C139.631 14.5234 143.614 14.7141 147.26 14.5508L147.251 21.1873C147.249 22.3652 147.201 24.0861 147.3 25.2275C146.9 25.1852 146.498 25.1632 146.095 25.1615C144.44 25.1435 142.121 25.0491 140.516 25.3052C138.908 25.5618 139.326 28.9812 139.328 30.3302L139.341 37.097C139.344 39.8966 139.341 42.1773 137.855 44.64C135.566 48.4312 132.16 49.7298 127.947 49.7341C124.454 49.7324 119.816 49.6023 116.412 49.7661C116.389 47.2692 116.384 44.7723 116.396 42.2754C116.397 41.1061 116.432 39.7127 116.364 38.5586C118.587 38.443 120.972 38.6128 123.215 38.542C125.691 38.4638 125.262 36.0528 125.255 34.2998L125.233 28.4664C125.231 24.4911 125.106 21.2129 127.952 18.0097C130.09 15.6022 132.776 14.7375 135.94 14.5947Z" fill="var(--fill-0, #F5E9D9)"/>
<path id="Vector_5" d="M1.09368 56.6641C2.41667 56.7791 4.68464 56.7214 6.05019 56.7215L14.9504 56.719L42.8085 56.7187L90.4904 56.7202C99.0315 56.7207 108.057 56.866 116.567 56.6709C116.424 58.0851 116.5 60.4244 116.518 61.9044C114.644 61.759 111.196 61.8521 109.25 61.852L95.4488 61.8526L52.471 61.853L17.6878 61.8521L7.00981 61.8514C5.42568 61.8516 2.57995 61.7754 1.1033 61.9387C1.06221 61.2031 1.03205 57.3034 1.09368 56.6641Z" fill="var(--fill-0, #BD3926)"/>
<path id="Vector_6" d="M140.964 56.668C142.735 56.813 145.474 56.6929 147.34 56.7054C147.332 58.3532 147.368 59.9968 147.358 61.6437C147.358 61.6439 147.229 61.8714 147.216 61.8934C145.526 61.8746 142.564 61.7523 140.972 61.9332C140.928 60.7882 140.891 57.6937 140.964 56.668Z" fill="var(--fill-0, #BD3926)"/>
<path id="Vector_7" d="M124.935 56.6369C126.336 56.4313 127.639 57.4013 127.843 58.8025C128.047 60.2037 127.075 61.5045 125.672 61.7068C124.272 61.9086 122.973 60.9391 122.769 59.5402C122.565 58.1414 123.534 56.842 124.935 56.6369ZM124.154 60.1032C124.695 60.4422 125.047 60.6638 125.717 60.5147C126.156 60.3154 126.424 60.1119 126.6 59.6355C126.728 59.2945 126.71 58.9163 126.552 58.5885C126.391 58.2538 126.101 57.999 125.748 57.8826C125.515 57.8083 125.181 57.8196 124.936 57.8466C123.758 58.2409 123.928 59.0578 124.154 60.1032Z" fill="var(--fill-0, #F5E9D9)"/>
<path id="Vector_8" d="M131.527 57.0509L131.884 57.664L131.978 57.6574C132.384 57.0217 132.49 56.6776 133.384 56.6201C133.941 56.583 134.489 56.772 134.903 57.1441C135.885 58.0355 135.545 60.2841 135.601 61.6947L134.448 61.7239C134.403 61.036 134.807 57.7551 133.583 57.7193C132.822 57.697 132.473 58.2738 132.472 59.0408C132.464 59.5842 132.58 61.311 132.324 61.6431C130.036 62.5112 132.984 56.4571 129.625 58.1065C129.226 58.3023 129.406 61.235 129.426 61.7161L128.269 61.707C128.291 60.1333 128.049 58.7373 128.678 57.2925C129.242 56.8596 129.422 56.756 130.115 56.6113C130.745 56.6213 130.988 56.7638 131.527 57.0509Z" fill="var(--fill-0, #F5E9D9)"/>
<path id="Vector_9" d="M121.1 56.668C121.512 56.6783 121.943 56.6698 122.358 56.668C122.354 57.4423 122.466 61.3135 122.298 61.7418C121.939 61.7017 121.492 61.7086 121.125 61.704L121.123 59.4696C120.555 59.561 119.845 59.5119 119.274 59.4701C119.293 60.2145 119.283 60.9795 119.301 61.733C118.892 61.7093 118.449 61.7108 118.037 61.7038C118.117 60.1012 117.97 58.3614 118.068 56.6816L119.268 56.6859L119.292 58.5737C119.845 58.4786 120.573 58.5248 121.127 58.5881L121.1 56.668Z" fill="var(--fill-0, #F5E9D9)"/>
<path id="Vector_10" d="M137.783 56.7201C138.41 56.7199 139.018 56.6935 139.645 56.6671L139.664 57.8691C138.958 57.8719 137.637 57.6265 137.198 58.191C137.193 58.472 137.151 58.4075 137.29 58.5822C137.805 58.6787 138.705 58.5899 139.324 58.6174L139.335 59.7324C138.866 59.7246 136.649 59.2685 137.242 60.4534C137.465 60.5815 137.954 60.5244 138.236 60.5126C138.718 60.5353 139.13 60.5063 139.609 60.479C139.632 60.8967 139.659 61.3141 139.689 61.7313C138.286 61.6081 135.556 62.2352 135.874 60.036C135.944 59.549 135.937 59.5801 136.368 59.3423C136.389 59.3165 136.41 59.2907 136.432 59.2648C136.074 58.7125 135.503 57.7738 136.087 57.1598C136.503 56.7213 137.155 56.7177 137.783 56.7201Z" fill="var(--fill-0, #F5E9D9)"/>
</g>
</svg>
